# xmcd
#
# Track frame offsets:
#	150
#	16734
#	43704
#	61054
#	81660
#	104372
#	132615
#	171208
#	211659
#	236765
#
# Disc length: 3574 seconds
#
# Revision: 3
# Processed by: cddbd v1.5.1PL2 Copyright (c) Steve Scherf et al.
# Submitted via: EasyCDDAExtractor 9.0.0.1
#
DISCID=850df40a
DTITLE=Eric Clapton - One More Car, One More Rider (1 of 2)
DYEAR=2002
DGENRE=Blues
TTITLE0=Key To The Highway
TTITLE1=Reptile
TTITLE2=Got You On My Mind
TTITLE3=Tears In Heaven
TTITLE4=Bell Bottom Blues
TTITLE5=Change The World
TTITLE6=My Father's Eyes
TTITLE7=River Of Tears
TTITLE8=Goin' Down Slow
TTITLE9=She's Gone
EXTD=
EXTT0=
EXTT1=
EXTT2=
EXTT3=
EXTT4=
EXTT5=
EXTT6=
EXTT7=
EXTT8=
EXTT9=
PLAYORDER=
